<svg width="159" height="57" fill="none" xmlns="http://www.w3.org/2000/svg"><path fill-rule="evenodd" clip-rule="evenodd" d="M115.382 20.536c-.027 0-.027 0 0 0h-14.287c-.213 0-.506.106-.666.24l-3.412 2.61c-.16.133-.133.24.08.24h18.311c1.253 0 1.679 1.198.933 2.104-.64.772-2.425.746-2.425.746h-11.568a.513.513 0 0 0-.48.373l-2.505 8.31c-.053.186.053.373.266.373h2.613c.213 0 .426-.16.479-.373l2.053-6.819c.053-.186.239-.24.373-.08l6.903 7.005c.133.16.426.267.64.267h4.211c.213 0 .266-.133.106-.267l-5.25-5.327c-.134-.16-.107-.266.106-.293l1.28-.08c2.398-.106 4.664-.879 5.703-2.264.827-1.118 1.28-2.636 1.067-3.915-.4-2.424-2.213-2.797-4.531-2.85z" fill="url(#paint0_linear)"/><path fill-rule="evenodd" clip-rule="evenodd" d="M75.562 15.05H91.5c.214 0 .267-.134.134-.294l-1.946-2.477a.895.895 0 0 0-.613-.293H75.668c-1.012-.053-1.972-.64-2.425-1.465-.506-.985-.293-2.237.613-3.676 2.266-3.542 5.597-3.675 5.597-3.675l12.26-.027c.214 0 .507-.107.667-.24l3.412-2.61c.16-.133.133-.24-.08-.24H79.453s-4.984.054-8.209 5.114c-2.052 3.197-1.36 5.62-.746 6.766.986 1.81 2.958 3.036 5.064 3.116z" fill="url(#paint1_linear)"/><path fill-rule="evenodd" clip-rule="evenodd" d="M25.027 12.599c.907-1.066 1.306-2.45 1.12-3.756-.08-.506-.267-.932-.267-.932a.536.536 0 0 1 .134-.586s.48-.373.8-.746c.905-1.065 1.305-2.45 1.119-3.756C27.533.426 25.72.053 23.428 0H12.874c-.214 0-.507.107-.667.24L8.796 2.85c-.16.133-.134.24.08.24h14.552c1.253 0 1.6 1.145.933 2.104-.453.666-2.345.799-2.345.799-.213.027-17.805.027-17.805.027-.213 0-.506.106-.666.24L.107 8.842c-.16.133-.133.24.08.24h21.429c1.253 0 1.6 1.145.933 2.104-.453.666-2.346.799-2.346.799-.213.027-11.46.053-11.46.053-.214 0-.507.107-.667.267l-2.745 2.557c-.16.133-.107.266.106.266h12.314c3.438-.053 5.864-.879 7.276-2.53z" fill="url(#paint2_linear)"/><path fill-rule="evenodd" clip-rule="evenodd" d="M48.829 26.715c.373 2.398 4.104 2.797 4.104 2.797.213.027 8.21.053 8.423.053 1.252 0 1.066 2.904-1.386 2.904H41.659c-.213 0-.506.16-.666.293l-2.959 2.583c-.16.133-.106.24.107.24h19.403c3.412-.027 5.837-.852 7.223-2.504.906-1.065 1.306-2.45 1.12-3.755-.4-2.398-3.145-2.85-4.158-2.85h-8.37c-1.252 0-1.599-1.146-.932-2.104.453-.666 2.345-.8 2.345-.8.214-.026 9.755-.053 9.755-.053.214 0 .507-.106.667-.24l3.411-2.61c.16-.133.133-.24-.08-.24H57.198c-3.412.027-5.837.853-7.223 2.504-.933 1.092-1.36 2.504-1.146 3.782z" fill="url(#paint3_linear)"/><path fill-rule="evenodd" clip-rule="evenodd" d="M26.28 15.022h23.535c.213 0 .266-.133.133-.293l-1.946-2.477a.895.895 0 0 0-.613-.293H30.544c-.213 0-.32-.16-.266-.373L33.663.426c.053-.186-.053-.373-.267-.373h-2.612a.512.512 0 0 0-.48.373l-4.29 14.25c-.08.187.053.346.266.346z" fill="url(#paint4_linear)"/><path fill-rule="evenodd" clip-rule="evenodd" d="M110.691 41.871h-2.612a.511.511 0 0 0-.48.373l-4.318 14.223c-.053.187.053.373.267.373h2.612c.213 0 .426-.16.479-.373l4.318-14.223c.053-.187-.053-.373-.266-.373z" fill="url(#paint5_linear)"/><path fill-rule="evenodd" clip-rule="evenodd" d="M50.668 15.022h2.878c.214 0 .48-.133.613-.293l2.825-3.515c.134-.16.4-.293.613-.293h6.557c.213 0 .427.16.48.373l.826 3.382a.512.512 0 0 0 .48.373h2.825c.213 0 .347-.16.293-.373L65.593.453a.512.512 0 0 0-.48-.373h-2.878c-.213 0-.346.16-.293.373l1.706 7.032c.053.213-.08.372-.293.372H56.29c-.16 0-.373.134-.506.293l-5.277 6.606c-.107.133-.053.266.16.266z" fill="url(#paint6_linear)"/><path fill-rule="evenodd" clip-rule="evenodd" d="M83.185 35.185l2.825-3.515c.133-.16.4-.293.613-.293h6.556c.214 0 .427.16.48.373l.826 3.382a.512.512 0 0 0 .48.373h2.879c.213 0 .346-.16.293-.373L94.672 20.91a.512.512 0 0 0-.48-.373h-2.878c-.213 0-.347.16-.293.373l1.705 7.032c.054.213-.08.373-.293.373H85.37c-.16 0-.373.133-.506.293l-5.278 6.605c-.133.16-.053.293.134.293h2.878a1.07 1.07 0 0 0 .587-.32z" fill="url(#paint7_linear)"/><path fill-rule="evenodd" clip-rule="evenodd" d="M53.2 42.297a.512.512 0 0 0-.48-.373h-2.878c-.214 0-.347.16-.294.373l1.706 7.032c.053.213-.08.373-.293.373h-7.063c-.16 0-.373.133-.507.293l-5.01 6.233a.412.412 0 0 1-.534.08l-8.768-6.526c-.16-.133-.16-.293.026-.4l13.407-7.218c.186-.107.16-.186-.053-.186h-5.011c-.214 0-.533.08-.72.186l-11.14 5.993c-.188.107-.294.027-.214-.186l1.706-5.674c.053-.186-.054-.373-.267-.373h-2.612a.512.512 0 0 0-.48.373l-4.317 14.224c-.054.186.053.372.266.372h2.612c.213 0 .427-.16.48-.373l1.652-5.46c.054-.186.24-.266.4-.133l7.703 5.753c.16.133.48.213.693.213h7.863c.213 0 .48-.133.613-.293l2.825-3.515c.133-.16.4-.293.613-.293h6.556c.214 0 .427.16.48.372l.827 3.383a.512.512 0 0 0 .48.373h2.878c.213 0 .346-.16.293-.373L53.2 42.297z" fill="url(#paint8_linear)"/><path fill-rule="evenodd" clip-rule="evenodd" d="M92.993 14.996h2.612c.213 0 .426-.16.48-.373l1.652-5.46c.053-.187.24-.267.4-.134l7.703 5.754c.16.133.479.213.693.213h5.01c.214 0 .24-.107.08-.213l-9.248-6.899c-.16-.133-.16-.293.026-.4L115.808.267c.187-.106.16-.186-.053-.186h-5.011c-.213 0-.533.08-.72.186L98.884 6.26c-.187.107-.294.027-.214-.186L100.376.4c.053-.187-.053-.373-.267-.373h-2.612a.512.512 0 0 0-.48.373l-4.29 14.25c-.054.186.053.346.266.346z" fill="url(#paint9_linear)"/><path fill-rule="evenodd" clip-rule="evenodd" d="M72.923 35.132c-.053.187.053.373.267.373h2.612c.213 0 .426-.16.48-.373l3.384-11.16c.054-.187.267-.373.48-.373h4.211c.213 0 .507-.107.667-.24l3.411-2.61c.16-.133.133-.24-.08-.24H72.923c-.213 0-.506.107-.666.24l-3.412 2.61c-.16.133-.133.24.08.24h7.09c.213 0 .32.16.266.373l-3.358 11.16z" fill="url(#paint10_linear)"/><path fill-rule="evenodd" clip-rule="evenodd" d="M106.826 42.11c.16-.132.133-.239-.08-.239H84.117c-.213 0-.506.107-.666.24l-3.412 2.61c-.16.133-.133.24.08.24h14.287c.213 0 .32.16.266.373l-3.358 11.133c-.054.187.053.373.266.373h2.612c.214 0 .427-.16.48-.373l3.385-11.16c.053-.186.266-.373.48-.373h4.211c.213 0 .506-.106.666-.24l3.412-2.583z" fill="url(#paint11_linear)"/><path fill-rule="evenodd" clip-rule="evenodd" d="M74.602 41.924c-.026 0-.026 0 0 0-.026 0-.026 0 0 0H60.29c-.213 0-.506.107-.666.24l-3.411 2.61c-.16.133-.134.24.08.24h18.31c1.253 0 1.68 1.199.933 2.104-.64.773-2.425.746-2.425.746H61.542a.512.512 0 0 0-.48.373l-2.505 8.31c-.053.187.053.373.267.373h2.612c.213 0 .426-.16.48-.373l2.052-6.819c.053-.186.24-.24.373-.08l6.903 7.006c.133.16.426.266.64.266h4.21c.214 0 .267-.133.108-.266l-5.251-5.327c-.133-.16-.107-.267.106-.293l1.28-.08c2.398-.107 4.664-.88 5.703-2.264.827-1.119 1.28-2.637 1.067-3.916-.4-2.424-2.213-2.796-4.505-2.85z" fill="url(#paint12_linear)"/><path fill-rule="evenodd" clip-rule="evenodd" d="M130.174 41.924h-2.612a.513.513 0 0 0-.48.373l-3.011 9.909c-.054.186-.214.213-.347.053l-7.543-10.015c-.133-.16-.24-.293-.266-.293-.027 0-.054 0-.027-.027.027-.026-.16-.026-.373-.026h-2.612a.512.512 0 0 0-.48.373l-4.344 14.196c-.054.187.053.373.266.373h2.612c.213 0 .427-.16.48-.373l3.118-10.254c.054-.187.214-.214.32-.054l7.543 10.388c.133.16.4.293.586.293h2.612c.214 0 .427-.16.48-.373l4.318-14.223c.08-.16-.053-.32-.24-.32z" fill="url(#paint13_linear)"/><path fill-rule="evenodd" clip-rule="evenodd" d="M157.813 41.978h-18.897s-4.984.053-8.209 5.114c-1.386 2.157-1.572 4.421-.48 6.366 1.147 2.077 3.599 3.515 5.971 3.515 3.438 0 5.65-.852 7.836-2.343 2.532-1.732 4.877-6.446 4.877-6.446.054-.213-.08-.373-.266-.373h-5.731c-.213 0-.506.106-.666.24l-3.412 2.61c-.16.133-.133.24.08.24h4.318c.213 0 .24.106.08.213 0 0-2.159 2.77-7.09 2.77-1.092 0-2.612-.72-3.251-1.918-.507-.932-.373-2.024.373-3.223 2.265-3.543 5.597-3.676 5.597-3.676l14.899-.026c.213 0 .507-.107.666-.24l3.412-2.61c.133-.107.107-.213-.107-.213z" fill="url(#paint14_linear)"/><path fill-rule="evenodd" clip-rule="evenodd" d="M13.14 56.867h1.76l4.53-14.943h-1.759L13.14 56.867z" fill="url(#paint15_linear)"/><path fill-rule="evenodd" clip-rule="evenodd" d="M6.983 56.867H8.21l4.531-14.943h-1.226l-4.53 14.943z" fill="url(#paint16_linear)"/><path fill-rule="evenodd" clip-rule="evenodd" d="M.027 56.867H.72l4.53-14.943h-.692L.027 56.867z" fill="url(#paint17_linear)"/><defs><linearGradient id="paint0_linear" x1="155.694" y1="28.012" x2="-8.244" y2="28.012" gradientUnits="userSpaceOnUse"><stop stop-color="#00F"/><stop offset=".044" stop-color="#000CFF"/><stop offset=".304" stop-color="#0050FF"/><stop offset=".539" stop-color="#0086FF"/><stop offset=".74" stop-color="#00ADFF"/><stop offset=".901" stop-color="#00C5FF"/><stop offset="1" stop-color="#00CEFF"/></linearGradient><linearGradient id="paint1_linear" x1="155.695" y1="7.557" x2="-8.244" y2="7.557" gradientUnits="userSpaceOnUse"><stop stop-color="#00F"/><stop offset=".044" stop-color="#000CFF"/><stop offset=".304" stop-color="#0050FF"/><stop offset=".539" stop-color="#0086FF"/><stop offset=".74" stop-color="#00ADFF"/><stop offset=".901" stop-color="#00C5FF"/><stop offset="1" stop-color="#00CEFF"/></linearGradient><linearGradient id="paint2_linear" x1="155.695" y1="7.552" x2="-8.244" y2="7.552" gradientUnits="userSpaceOnUse"><stop stop-color="#00F"/><stop offset=".044" stop-color="#000CFF"/><stop offset=".304" stop-color="#0050FF"/><stop offset=".539" stop-color="#0086FF"/><stop offset=".74" stop-color="#00ADFF"/><stop offset=".901" stop-color="#00C5FF"/><stop offset="1" stop-color="#00CEFF"/></linearGradient><linearGradient id="paint3_linear" x1="155.694" y1="28.013" x2="-8.244" y2="28.013" gradientUnits="userSpaceOnUse"><stop stop-color="#00F"/><stop offset=".044" stop-color="#000CFF"/><stop offset=".304" stop-color="#0050FF"/><stop offset=".539" stop-color="#0086FF"/><stop offset=".74" stop-color="#00ADFF"/><stop offset=".901" stop-color="#00C5FF"/><stop offset="1" stop-color="#00CEFF"/></linearGradient><linearGradient id="paint4_linear" x1="155.694" y1="7.557" x2="-8.244" y2="7.557" gradientUnits="userSpaceOnUse"><stop stop-color="#00F"/><stop offset=".044" stop-color="#000CFF"/><stop offset=".304" stop-color="#0050FF"/><stop offset=".539" stop-color="#0086FF"/><stop offset=".74" stop-color="#00ADFF"/><stop offset=".901" stop-color="#00C5FF"/><stop offset="1" stop-color="#00CEFF"/></linearGradient><linearGradient id="paint5_linear" x1="155.694" y1="49.363" x2="-8.244" y2="49.363" gradientUnits="userSpaceOnUse"><stop stop-color="#00F"/><stop offset=".044" stop-color="#000CFF"/><stop offset=".304" stop-color="#0050FF"/><stop offset=".539" stop-color="#0086FF"/><stop offset=".74" stop-color="#00ADFF"/><stop offset=".901" stop-color="#00C5FF"/><stop offset="1" stop-color="#00CEFF"/></linearGradient><linearGradient id="paint6_linear" x1="155.695" y1="7.553" x2="-8.244" y2="7.553" gradientUnits="userSpaceOnUse"><stop stop-color="#00F"/><stop offset=".044" stop-color="#000CFF"/><stop offset=".304" stop-color="#0050FF"/><stop offset=".539" stop-color="#0086FF"/><stop offset=".74" stop-color="#00ADFF"/><stop offset=".901" stop-color="#00C5FF"/><stop offset="1" stop-color="#00CEFF"/></linearGradient><linearGradient id="paint7_linear" x1="155.695" y1="28.005" x2="-8.244" y2="28.005" gradientUnits="userSpaceOnUse"><stop stop-color="#00F"/><stop offset=".044" stop-color="#000CFF"/><stop offset=".304" stop-color="#0050FF"/><stop offset=".539" stop-color="#0086FF"/><stop offset=".74" stop-color="#00ADFF"/><stop offset=".901" stop-color="#00C5FF"/><stop offset="1" stop-color="#00CEFF"/></linearGradient><linearGradient id="paint8_linear" x1="155.695" y1="49.397" x2="-8.244" y2="49.397" gradientUnits="userSpaceOnUse"><stop stop-color="#00F"/><stop offset=".044" stop-color="#000CFF"/><stop offset=".304" stop-color="#0050FF"/><stop offset=".539" stop-color="#0086FF"/><stop offset=".74" stop-color="#00ADFF"/><stop offset=".901" stop-color="#00C5FF"/><stop offset="1" stop-color="#00CEFF"/></linearGradient><linearGradient id="paint9_linear" x1="155.694" y1="7.521" x2="-8.244" y2="7.521" gradientUnits="userSpaceOnUse"><stop stop-color="#00F"/><stop offset=".044" stop-color="#000CFF"/><stop offset=".304" stop-color="#0050FF"/><stop offset=".539" stop-color="#0086FF"/><stop offset=".74" stop-color="#00ADFF"/><stop offset=".901" stop-color="#00C5FF"/><stop offset="1" stop-color="#00CEFF"/></linearGradient><linearGradient id="paint10_linear" x1="155.694" y1="28.014" x2="-8.244" y2="28.014" gradientUnits="userSpaceOnUse"><stop stop-color="#00F"/><stop offset=".044" stop-color="#000CFF"/><stop offset=".304" stop-color="#0050FF"/><stop offset=".539" stop-color="#0086FF"/><stop offset=".74" stop-color="#00ADFF"/><stop offset=".901" stop-color="#00C5FF"/><stop offset="1" stop-color="#00CEFF"/></linearGradient><linearGradient id="paint11_linear" x1="155.695" y1="49.363" x2="-8.244" y2="49.363" gradientUnits="userSpaceOnUse"><stop stop-color="#00F"/><stop offset=".044" stop-color="#000CFF"/><stop offset=".304" stop-color="#0050FF"/><stop offset=".539" stop-color="#0086FF"/><stop offset=".74" stop-color="#00ADFF"/><stop offset=".901" stop-color="#00C5FF"/><stop offset="1" stop-color="#00CEFF"/></linearGradient><linearGradient id="paint12_linear" x1="155.695" y1="49.396" x2="-8.244" y2="49.396" gradientUnits="userSpaceOnUse"><stop stop-color="#00F"/><stop offset=".044" stop-color="#000CFF"/><stop offset=".304" stop-color="#0050FF"/><stop offset=".539" stop-color="#0086FF"/><stop offset=".74" stop-color="#00ADFF"/><stop offset=".901" stop-color="#00C5FF"/><stop offset="1" stop-color="#00CEFF"/></linearGradient><linearGradient id="paint13_linear" x1="155.694" y1="49.38" x2="-8.244" y2="49.38" gradientUnits="userSpaceOnUse"><stop stop-color="#00F"/><stop offset=".044" stop-color="#000CFF"/><stop offset=".304" stop-color="#0050FF"/><stop offset=".539" stop-color="#0086FF"/><stop offset=".74" stop-color="#00ADFF"/><stop offset=".901" stop-color="#00C5FF"/><stop offset="1" stop-color="#00CEFF"/></linearGradient><linearGradient id="paint14_linear" x1="155.694" y1="49.485" x2="-8.244" y2="49.485" gradientUnits="userSpaceOnUse"><stop stop-color="#00F"/><stop offset=".044" stop-color="#000CFF"/><stop offset=".304" stop-color="#0050FF"/><stop offset=".539" stop-color="#0086FF"/><stop offset=".74" stop-color="#00ADFF"/><stop offset=".901" stop-color="#00C5FF"/><stop offset="1" stop-color="#00CEFF"/></linearGradient><linearGradient id="paint15_linear" x1="155.695" y1="49.397" x2="-8.244" y2="49.397" gradientUnits="userSpaceOnUse"><stop stop-color="#00F"/><stop offset=".044" stop-color="#000CFF"/><stop offset=".304" stop-color="#0050FF"/><stop offset=".539" stop-color="#0086FF"/><stop offset=".74" stop-color="#00ADFF"/><stop offset=".901" stop-color="#00C5FF"/><stop offset="1" stop-color="#00CEFF"/></linearGradient><linearGradient id="paint16_linear" x1="155.694" y1="49.397" x2="-8.244" y2="49.397" gradientUnits="userSpaceOnUse"><stop stop-color="#00F"/><stop offset=".044" stop-color="#000CFF"/><stop offset=".304" stop-color="#0050FF"/><stop offset=".539" stop-color="#0086FF"/><stop offset=".74" stop-color="#00ADFF"/><stop offset=".901" stop-color="#00C5FF"/><stop offset="1" stop-color="#00CEFF"/></linearGradient><linearGradient id="paint17_linear" x1="155.695" y1="49.397" x2="-8.244" y2="49.397" gradientUnits="userSpaceOnUse"><stop stop-color="#00F"/><stop offset=".044" stop-color="#000CFF"/><stop offset=".304" stop-color="#0050FF"/><stop offset=".539" stop-color="#0086FF"/><stop offset=".74" stop-color="#00ADFF"/><stop offset=".901" stop-color="#00C5FF"/><stop offset="1" stop-color="#00CEFF"/></linearGradient></defs></svg>