<svg width="93" height="22" fill="none" xmlns="http://www.w3.org/2000/svg"><path fill-rule="evenodd" clip-rule="evenodd" d="M92.751 1.035h-6.746c-.284 0-.71.106-.96.247l-15.02 7.993c-.248.14-.39.035-.284-.247l2.308-7.57c.071-.282-.07-.493-.355-.493H49.962c-4.545.035-7.776 1.127-9.623 3.31-1.207 1.408-1.74 3.24-1.491 4.964.497 3.17 5.468 3.768 5.468 3.768h11.221c1.67 0 1.42 3.838-1.846 3.838H33.876c.782-1.267 1.137-2.782.924-4.155-.107-.669-.356-1.232-.356-1.232-.106-.247-.035-.599.178-.775 0 0 .64-.493 1.065-.986 1.208-1.408 1.74-3.24 1.492-4.965C36.646 1.563 34.23 1.07 31.177 1H17.116c-.284 0-.675.14-.888.317l-4.545 3.45c-.213.177-.178.318.106.318h19.389c1.668 0 2.13 1.514 1.242 2.781-.603.88-3.125 1.057-3.125 1.057-.284.035-23.72.035-23.72.035-.284 0-.675.14-.888.317l-4.545 3.45c-.213.177-.178.317.107.317h28.55c1.668 0 2.13 1.514 1.242 2.782-.603.88-3.125 1.056-3.125 1.056-.284.036-15.269.07-15.269.07-.284 0-.675.142-.888.353l-3.657 3.38c-.213.176-.142.352.142.352h17.151c.036.035.107.035.178.035h25.85c4.546-.035 7.777-1.126 9.624-3.31 1.207-1.408 1.74-3.239 1.491-4.964-.532-3.17-4.19-3.768-5.54-3.768h-11.15c-1.668 0-2.13-1.514-1.242-2.781.604-.88 3.125-1.057 3.125-1.057h19.672l-4.687 15.387c-.071.282.07.493.355.493h3.516a.681.681 0 0 0 .639-.492l2.237-7.324c.07-.282.32-.352.568-.176L79.4 20.754c.213.176.639.316.923.316h6.498c.249 0 .355-.281.178-.422-.284-.211-.462-.317-.497-.352l-11.79-8.733c-.213-.176-.213-.422.036-.528l18.074-9.648c.249-.246.213-.352-.07-.352z" fill="url(#paint0_linear)"/><defs><linearGradient id="paint0_linear" x1="93.902" y1="10.994" x2="15.6" y2="10.994" gradientUnits="userSpaceOnUse"><stop stop-color="#00F"/><stop offset=".044" stop-color="#000CFF"/><stop offset=".304" stop-color="#0050FF"/><stop offset=".539" stop-color="#0086FF"/><stop offset=".74" stop-color="#00ADFF"/><stop offset=".901" stop-color="#00C5FF"/><stop offset="1" stop-color="#00CEFF"/></linearGradient></defs></svg>